<svg xmlns="http://www.w3.org/2000/svg" viewBox="0 0 260 260" role="img" aria-labelledby="title desc">
  <title id="title">Striker Splash Logo</title>
  <desc id="desc">Placeholder circular logo for Striker Splash until official asset is uploaded.</desc>
  <defs>
    <linearGradient id="grad" x1="0" x2="1" y1="0" y2="1">
      <stop offset="0%" stop-color="#007bff"/>
      <stop offset="100%" stop-color="#6c5ce7"/>
    </linearGradient>
    <filter id="shadow" x="-20%" y="-20%" width="140%" height="140%">
      <feDropShadow dx="0" dy="6" stdDeviation="8" flood-color="#000" flood-opacity="0.4"/>
    </filter>
  </defs>
  <circle cx="130" cy="130" r="120" fill="url(#grad)" filter="url(#shadow)"/>
  <path d="M130 54c-8 0-14 6-14 14v56l-34 20c-12 7-8 26 6 26 2 0 5-.5 7-2l35-21 35 21c2 1 5 2 7 2 14 0 18-19 6-26l-34-20V68c0-8-6-14-14-14Z" fill="#fff"/>
  <text x="50%" y="210" text-anchor="middle" font-family="'Poppins','Helvetica Neue',Arial,sans-serif" font-size="42" font-weight="700" fill="#fff">SS</text>
</svg>
